<svg width="156" height="44" viewBox="0 0 156 44" fill="none" xmlns="http://www.w3.org/2000/svg">
<g clip-path="url(#clip0)">
<path d="M35.0327 34.085C34.6061 34.3758 34.1553 34.6291 33.6852 34.842C33.196 35.0553 32.687 35.2198 32.1656 35.3331C31.5122 35.4761 30.8448 35.545 30.176 35.5385C28.7077 35.5798 27.2483 35.297 25.901 34.7101C24.778 34.2021 23.8125 33.3997 23.1062 32.3875C22.4005 31.3449 21.9401 30.1552 21.7597 28.9082C21.5509 27.4937 21.5887 26.0535 21.8714 24.652C22.1007 23.3036 22.4914 21.9878 23.0349 20.7331C23.5903 19.4339 24.3787 18.2479 25.3609 17.234C26.4178 16.1605 27.6769 15.3083 29.065 14.7269C30.7595 14.045 32.5752 13.7179 34.4005 13.7655C35.7072 13.7582 37.0129 13.8401 38.3084 14.0106C39.3405 14.1448 40.3643 14.3359 41.3754 14.583C42.3096 14.8063 43.2294 15.0863 44.1297 15.4214L40.8857 34.2884C40.4585 37.0747 38.9925 39.5944 36.7838 41.3384C35.6963 42.1905 34.4662 42.8416 33.151 43.2611C31.7193 43.7149 30.2251 43.9392 28.7237 43.9258C27.6145 43.9439 26.5065 43.8441 25.4183 43.6282C24.6636 43.471 23.9204 43.2621 23.1942 43.0031L23.1734 42.9952C22.9519 42.9039 22.7522 42.7664 22.5878 42.5918C22.4233 42.4172 22.2978 42.2095 22.2196 41.9825C22.1413 41.7555 22.1122 41.5144 22.134 41.2752C22.1559 41.036 22.2283 40.8042 22.3463 40.5953L23.9896 37.6427C24.386 38.0313 24.8403 38.3556 25.3361 38.6041C25.8985 38.854 26.4781 39.0629 27.0704 39.2291C27.8689 39.442 28.693 39.5422 29.5191 39.5268C30.2295 39.5699 30.9414 39.4698 31.6126 39.2325C32.2838 38.9951 32.9007 38.6252 33.427 38.1447C34.4553 37.0206 35.1019 35.5987 35.2741 34.083L35.0327 34.085ZM33.6476 18.1646C32.9199 18.1662 32.2016 18.3306 31.5453 18.6458C30.8552 18.9738 30.2324 19.4284 29.7091 19.9861C29.1435 20.5901 28.6782 21.2811 28.3309 22.0328C27.9435 22.8663 27.6658 23.7467 27.5048 24.652C27.3691 25.4252 27.3283 26.2122 27.3831 26.9954C27.4225 27.7212 27.5991 28.433 27.9035 29.0927C28.1727 29.6802 28.583 30.1915 29.0976 30.5809C29.6314 30.9657 30.2767 31.1634 30.9338 31.1434C31.5821 31.1456 32.2286 31.0771 32.8621 30.939C33.4161 30.8227 33.959 30.6584 34.4846 30.4479C35.0066 30.2344 35.5116 29.9813 35.9953 29.6909L38.0967 19.0098C37.7003 18.8357 37.2911 18.6921 36.8729 18.5803C36.4097 18.4569 35.9396 18.3612 35.4651 18.2935C34.8623 18.2055 34.2538 18.1624 33.6447 18.1646H33.6476Z" fill="white"/>
<path d="M54.0321 35.5325C52.5004 35.585 50.9772 35.284 49.58 34.6525C48.4719 34.1295 47.5163 33.3298 46.8049 32.33C46.1262 31.3368 45.6894 30.1977 45.5296 29.0044C45.3477 27.6908 45.3854 26.356 45.6414 25.0548C45.9013 23.6488 46.3871 22.2945 47.0799 21.0447C47.7882 19.7431 48.6975 18.5621 49.7739 17.5455C50.8768 16.5085 52.1553 15.677 53.5493 15.09C55.0248 14.4681 56.6115 14.1548 58.2121 14.1693C58.8794 14.1524 59.5458 14.2315 60.1908 14.4045C60.6255 14.5264 61.0435 14.7017 61.4353 14.9263C61.7656 15.1143 62.0623 15.3565 62.3129 15.6426H62.5167L62.9451 13.33L64.2698 13.4411C64.7597 13.4823 65.236 13.6236 65.6694 13.8562C66.1028 14.0888 66.4841 14.408 66.7899 14.7939C67.0958 15.1799 67.3196 15.6245 67.4477 16.1004C67.5758 16.5764 67.6054 17.0735 67.5347 17.5614L64.9841 35.1218L59.8831 35.5306L59.8425 33.4471H59.6387C59.0647 33.8364 58.4644 34.1852 57.8421 34.4908C57.262 34.7843 56.658 35.0272 56.0365 35.217C55.3882 35.4238 54.7123 35.5302 54.0321 35.5325ZM54.7869 31.1325C55.5627 31.1397 56.3356 31.0361 57.0822 30.825C57.722 30.6452 58.3411 30.3984 58.9293 30.0888C59.5168 29.7908 60.0769 29.4415 60.6033 29.0451L61.7658 20.0407C61.5297 19.7559 61.2466 19.514 60.9288 19.3254C60.5216 19.0956 60.0862 18.9202 59.6337 18.8035C58.9219 18.6283 58.1899 18.5492 57.4572 18.5684C56.6873 18.5669 55.9294 18.7604 55.2539 19.1309C54.5523 19.5134 53.9237 20.0172 53.3969 20.6191C52.8438 21.247 52.3867 21.9539 52.0405 22.7164C51.6917 23.4632 51.4346 24.2498 51.2748 25.0588C50.8906 26.5476 51.0275 28.1235 51.6626 29.5233C51.9763 30.0622 52.437 30.5 52.9906 30.7851C53.5441 31.0702 54.1674 31.1908 54.7869 31.1325Z" fill="white"/>
<path d="M84.5396 14.1654C87.3553 14.1654 89.4164 14.919 90.723 16.4264C92.0296 17.9338 92.4171 20.2563 91.8855 23.394L89.8445 35.1208L84.3556 35.3252L86.4579 23.396C86.567 22.7551 86.56 22.0998 86.4372 21.4614C86.2837 20.6387 85.8451 19.8969 85.199 19.3672C84.5528 18.8374 83.7407 18.5538 82.9062 18.5664C82.2302 18.5635 81.5583 18.6707 80.9166 18.8839C80.2841 19.0949 79.7235 19.3098 79.2347 19.5287C78.6571 19.7977 78.0982 20.1053 77.5617 20.4494L75.4178 35.1208L69.9487 35.3252L72.2816 19.247C72.4829 17.8605 73.1464 16.5833 74.1642 15.6234C75.182 14.6635 76.4939 14.0775 77.8862 13.961V16.2528H78.0901C78.6785 15.8399 79.3085 15.49 79.9698 15.2091C80.6389 14.934 81.3234 14.6982 82.0197 14.5027C82.8398 14.2727 83.6881 14.1592 84.5396 14.1654Z" fill="white"/>
<path d="M94.809 24.4457C95.2289 21.426 96.6736 18.6437 98.8999 16.5673C101.199 14.6333 104.137 13.6333 107.134 13.7646C108.691 13.7124 110.236 14.0572 111.624 14.7666C112.785 15.3901 113.776 16.2894 114.511 17.3858C115.23 18.4767 115.701 19.7136 115.889 21.008C116.093 22.3526 116.072 23.722 115.828 25.0598C115.575 26.448 115.131 27.7945 114.511 29.061C113.883 30.3567 113.042 31.5364 112.022 32.5502C110.897 33.6676 109.56 34.5461 108.089 35.1332C106.618 35.7203 105.044 36.0039 103.462 35.9671C102.055 35.9893 100.66 35.6958 99.3807 35.1079C98.2099 34.5672 97.1904 33.7448 96.4127 32.7139C95.6176 31.6316 95.0676 30.3883 94.801 29.0709C94.4933 27.5443 94.4961 25.9712 94.809 24.4457ZM106.384 18.1626C105.555 18.145 104.737 18.3539 104.017 18.7668C103.346 19.1616 102.754 19.6788 102.273 20.2917C101.784 20.9117 101.385 21.5969 101.085 22.3275C100.798 23.009 100.582 23.7189 100.442 24.4457C100.303 25.26 100.235 26.0849 100.238 26.9111C100.228 27.7198 100.362 28.5239 100.634 29.2852C100.882 29.9771 101.308 30.591 101.869 31.065C102.542 31.5733 103.374 31.8238 104.216 31.7714C105.112 31.8011 105.998 31.5703 106.766 31.1067C107.454 30.6696 108.047 30.0988 108.51 29.4281C108.978 28.756 109.349 28.0212 109.613 27.2454C109.861 26.5312 110.055 25.7993 110.193 25.0558C110.354 24.206 110.402 23.3387 110.336 22.4763C110.283 21.7183 110.093 20.9762 109.775 20.2867C109.484 19.6645 109.033 19.1313 108.469 18.742C107.848 18.3392 107.118 18.1373 106.379 18.1636L106.384 18.1626Z" fill="white"/>
<path d="M136.54 22.1936L146.489 4.42288C147.153 3.23644 148.094 2.22905 149.231 1.48694C150.368 0.744843 151.668 0.290139 153.018 0.161755L154.689 0.00201416L140.584 25.9021C139.329 28.2088 136.005 28.2991 136.005 28.2991L135.484 24.2384L136.54 22.1936Z" fill="#1F8FFF"/>
<path d="M17.4402 34.9988C14.9938 36.1679 12.3135 36.7617 9.60356 36.7349C3.45379 36.7349 0.491699 32.9877 0.491699 27.552C0.491699 20.8353 5.41171 13.5255 13.0663 13.5255C17.4402 13.5255 20.2193 16.0841 20.2193 19.7847C20.2193 25.4953 14.2515 27.3247 5.68576 27.1402C5.60198 28.2253 5.80683 29.3134 6.27938 30.2932C6.75765 31.0553 7.43545 31.6712 8.23884 32.0736C9.04222 32.476 9.94037 32.6494 10.8353 32.575C12.9585 32.5904 15.0535 32.0885 16.9406 31.1126L17.4402 34.9988ZM12.3837 17.5008C9.05747 17.5008 6.87101 20.4702 6.23288 23.1658C11.7 23.2581 15.2082 22.4803 15.2082 19.8313C15.2072 18.369 14.0685 17.4999 12.3827 17.4999L12.3837 17.5008Z" fill="white" stroke="white" stroke-miterlimit="10"/>
<path d="M155.573 4.19562C155.239 4.81173 154.934 5.37624 154.627 5.93976C150.255 13.9719 145.883 22.0041 141.51 30.0362C140.823 31.3476 139.768 32.4287 138.476 33.146C137.184 33.8634 135.71 34.1857 134.237 34.0731C133.723 29.6232 133.209 25.1653 132.693 20.6994L132.561 20.6469C132.452 20.799 132.35 20.9566 132.256 21.1191L126.875 31.5075C126.553 32.1285 126.071 32.6517 125.48 33.0227C124.888 33.3937 124.208 33.5988 123.511 33.6168C122.347 33.6475 121.007 33.6862 120.167 33.716C119.468 29.3586 118.771 25.0112 118.064 20.6131C118.916 20.5413 119.772 20.6477 120.58 20.9256C121.388 21.2035 122.13 21.6468 122.758 22.2273C123.973 23.4364 124.675 25.0692 124.719 26.7851L124.864 26.8158C124.972 26.682 125.071 26.5415 125.161 26.3952C126.845 23.1986 128.527 20.001 130.207 16.8024C130.624 16.0087 131.051 15.215 131.452 14.4213C131.503 14.3126 131.583 14.2198 131.683 14.153C131.782 14.0863 131.898 14.048 132.018 14.0424C133.096 14.0367 134.137 14.4301 134.944 15.147C135.75 15.8639 136.264 16.854 136.387 17.9275C136.677 20.5824 136.996 23.2343 137.303 25.8882C137.319 26.0211 137.353 26.1521 137.402 26.3843C137.523 26.1799 137.6 26.0479 137.679 25.913C140.704 20.5109 143.586 15.3559 147.31 8.71471C148.033 7.4438 149.058 6.37144 150.293 5.59268C151.529 4.81392 152.937 4.35281 154.392 4.2502C154.72 4.2244 155.046 4.19067 155.374 4.16388C155.441 4.16903 155.507 4.17965 155.573 4.19562Z" fill="#505050"/>
<path d="M156.005 5.61037C155.67 6.22747 155.366 6.79098 155.059 7.35451C150.687 15.3873 146.315 23.4195 141.942 31.451C141.255 32.7622 140.201 33.8431 138.908 34.5604C137.616 35.2778 136.142 35.6002 134.67 35.4879L133.125 22.1142L132.993 22.0606C132.894 22.2174 132.773 22.3672 132.687 22.5338L127.307 32.9183C126.985 33.5392 126.504 34.0624 125.912 34.4333C125.321 34.8043 124.641 35.0095 123.943 35.0275C122.78 35.0583 121.44 35.097 120.6 35.1267C119.901 30.7694 119.203 26.4219 118.498 22.0239C119.349 21.9519 120.206 22.0581 121.014 22.3358C121.822 22.6135 122.563 23.0567 123.191 23.6371C124.406 24.8461 125.109 26.4789 125.153 28.1948L125.299 28.2256C125.406 28.0919 125.506 27.9514 125.595 27.8049C127.279 24.609 128.961 21.4114 130.641 18.2122C131.059 17.4185 131.486 16.6248 131.887 15.8311C131.938 15.7227 132.018 15.6302 132.117 15.5637C132.217 15.4971 132.333 15.4589 132.453 15.4531C133.53 15.4475 134.572 15.8408 135.378 16.5577C136.185 17.2746 136.699 18.2647 136.822 19.3382C137.112 21.9931 137.43 24.6451 137.739 27.299C137.753 27.4319 137.788 27.5629 137.838 27.795C137.958 27.5897 138.035 27.4587 138.115 27.3238C141.325 21.5913 144.535 15.8586 147.745 10.1255C148.469 8.85549 149.494 7.78413 150.729 7.00626C151.965 6.22839 153.372 5.76803 154.828 5.66593C155.155 5.64014 155.482 5.60639 155.809 5.57861C155.875 5.58394 155.94 5.59457 156.005 5.61037Z" fill="white"/>
</g>
<defs>
<clipPath id="clip0">
<rect width="156" height="43.9238" fill="white"/>
</clipPath>
</defs>
</svg>
