<svg width="105" height="105" viewBox="0 0 105 105" fill="none" xmlns="http://www.w3.org/2000/svg">
<circle cx="52.5" cy="52.5" r="52.5" fill="#FE203D" fill-opacity="0.05"/>
<path d="M72.1761 74.8949H80.3387V63.2929L81.2484 62.989C82.7604 62.4848 83 61.5834 83 60.9261C83 60.2688 82.7604 59.3691 81.2484 58.8631L80.3387 58.5593V43.3366L81.2484 43.0327C82.7604 42.5285 83 41.6271 83 40.9698C83 40.3125 82.7604 39.4128 81.2484 38.9068L80.3387 38.603V27H54.2633V38.602L53.3536 38.9059C51.8416 39.4101 51.602 40.3116 51.602 40.9688C51.602 41.6261 51.8416 42.5258 53.3536 43.0318L54.2633 43.3357V55.5969L56.541 60.6781L61.3431 60.8746L64.7632 67.4685H68.8919L72.1761 74.8949ZM67.3029 33.9333L68.4076 35.5707C68.4076 35.5707 70.0949 38.075 71.7886 41.0638L71.7882 41.0635C72.6541 42.5675 73.4388 44.1169 74.1395 45.7047C74.7993 47.0299 75.1889 48.4733 75.2852 49.9505C75.3049 52.0802 74.4724 54.1299 72.9733 55.6426C71.4742 57.1556 69.4329 58.0068 67.3028 58.0068C65.173 58.0068 63.1313 57.1557 61.6322 55.6426C60.1331 54.1299 59.301 52.0802 59.3204 49.9505C59.417 48.4734 59.8063 47.0299 60.4664 45.7047C61.1667 44.1168 61.9518 42.5675 62.8177 41.0635C64.51 38.0725 66.1987 35.5704 66.1987 35.5704L67.3029 33.9333ZM67.3029 38.8518C66.6937 39.7899 66.2201 40.4619 65.1368 42.3714V42.3711C64.3183 43.7918 63.5753 45.2546 62.9112 46.7537C62.4332 47.7632 62.1182 48.8418 61.9785 49.9498C61.9785 51.8511 62.9927 53.608 64.6393 54.5587C66.286 55.5093 68.3145 55.5093 69.9612 54.5587C71.6074 53.608 72.6217 51.8511 72.6217 49.9498C72.482 48.8418 72.1674 47.7633 71.689 46.7537C71.0264 45.2553 70.2848 43.7929 69.4677 42.3725C68.3863 40.4626 67.9098 39.7903 67.3007 38.8522L67.3029 38.8518ZM51.603 56.2701C51.8803 56.2704 52.1507 56.3577 52.3762 56.5193C52.6018 56.6809 52.7709 56.909 52.8607 57.1715L55.124 62.3601V62.3605C55.1697 62.4984 55.1926 62.6431 55.1916 62.7889H59.7164C59.9937 62.7893 60.2641 62.8762 60.4897 63.0378C60.7152 63.1998 60.8844 63.4278 60.9738 63.6904L63.2371 68.879C63.2831 69.0173 63.3061 69.162 63.305 69.3074H66.3656C66.6432 69.3078 66.9133 69.3951 67.1389 69.5567C67.3644 69.7183 67.5339 69.9464 67.6233 70.2093L69.8867 75.3979C69.9323 75.5361 69.9553 75.6809 69.9542 75.8263V77.157C69.9542 77.51 69.8141 77.8483 69.5645 78.0979C69.3149 78.3475 68.9766 78.4876 68.6236 78.4876H24.331C23.9779 78.4876 23.6393 78.3475 23.39 78.0979C23.1404 77.8483 23 77.51 23 77.157V75.8271C22.9993 75.6813 23.0219 75.5365 23.0679 75.3986L25.3312 70.21V70.2096C25.4206 69.9471 25.5902 69.719 25.8153 69.5574C26.0409 69.3958 26.3113 69.3085 26.5889 69.3082H29.6496C29.6485 69.1627 29.6715 69.018 29.7171 68.8797L31.9804 63.6911C32.0698 63.4286 32.2393 63.2002 32.4649 63.0385C32.6904 62.8769 32.9605 62.79 33.2381 62.7893H37.763C37.7619 62.6439 37.7845 62.4991 37.8305 62.3612L40.1014 57.1716C40.1908 56.9091 40.36 56.681 40.5855 56.5194C40.811 56.3578 41.0815 56.2705 41.3587 56.2701L51.603 56.2701ZM50.6495 58.9306H42.3105L40.5019 62.7886L52.4579 62.7889L50.6495 58.9306ZM58.7647 65.4494H50.4262L48.6175 69.3074H60.5735L58.7647 65.4494ZM42.5335 65.4494H34.1949L32.3862 69.3074H44.3422L42.5335 65.4494ZM65.4148 71.9686H57.0776L55.269 75.8266L67.225 75.8269L65.4148 71.9686ZM50.6473 71.9686H42.3097L40.501 75.8266L52.457 75.8269L50.6473 71.9686ZM35.8797 71.9686H27.5421L25.7334 75.8266L37.6895 75.8269L35.8797 71.9686Z" fill="#CC0229"/>
</svg>
