<svg width="105" height="105" viewBox="0 0 105 105" fill="none" xmlns="http://www.w3.org/2000/svg">
<circle cx="52.5" cy="52.5" r="52.5" fill="#FE203D" fill-opacity="0.05"/>
<path d="M72.8978 26H31.9886C30.909 26 30 26.909 30 27.9886V76.966C30 77.9318 30.5114 78.8411 31.3637 79.2955C32.216 79.7501 33.2388 79.6932 34.0341 79.182L37.6137 76.7957C38.3524 76.3411 39.2615 76.3411 40 76.7957L44.2046 79.5798C45.1136 80.148 46.25 80.148 47.1023 79.5798L51.3069 76.7957C52.0456 76.3411 52.9546 76.3411 53.6931 76.7957L57.8977 79.5798C58.3524 79.8639 58.8636 80.0345 59.375 80.0345C59.8864 80.0345 60.3978 79.8639 60.7954 79.5798L65 76.7957C65.7388 76.3411 66.6478 76.3411 67.3863 76.7957L70.966 79.182C71.7615 79.6934 72.784 79.7501 73.6363 79.2955C74.4886 78.8409 75 77.9318 75 76.966V27.9886C74.8864 26.909 73.9774 26 72.8978 26ZM64.4887 65.6024H40.3977C39.6022 65.6024 38.9205 64.9774 38.9205 64.1251C38.9205 63.3296 39.5455 62.6479 40.3977 62.6479H64.5455C65.341 62.6479 66.0228 63.2729 66.0228 64.1251C65.966 64.9206 65.284 65.6024 64.4886 65.6024H64.4887ZM64.4887 57.1932H40.3977C39.6022 57.1932 38.9205 56.5683 38.9205 55.716C38.9205 54.9205 39.5455 54.2388 40.3977 54.2388H64.5455C65.341 54.2388 66.0228 54.8637 66.0228 55.716C65.966 56.5113 65.284 57.1932 64.4886 57.1932H64.4887ZM64.4887 48.7273H40.3977C39.6022 48.7273 38.9205 48.1024 38.9205 47.2501C38.9205 46.4546 39.5455 45.7729 40.3977 45.7729H64.5455C65.341 45.7729 66.0228 46.3978 66.0228 47.2501C65.966 48.1024 65.284 48.7273 64.4886 48.7273H64.4887ZM64.4887 40.3182H40.3977C39.6022 40.3182 38.9205 39.6933 38.9205 38.841C38.9205 38.0455 39.5455 37.3638 40.3977 37.3638H64.5455C65.341 37.3638 66.0228 37.9887 66.0228 38.841C65.966 39.6933 65.284 40.3182 64.4886 40.3182H64.4887Z" fill="#CC0229"/>
</svg>
