<svg width="120" height="120" viewBox="0 0 120 120" fill="none" xmlns="http://www.w3.org/2000/svg">
<circle cx="60" cy="60" r="60" fill="#1F8FFF" fill-opacity="0.1"/>
<g clip-path="url(#clip0_298_31)">
<path d="M50.6249 74.5827H49.6389C48.7168 74.5827 47.871 74.0056 47.5961 73.1254C47.2633 72.0594 47.8205 70.9447 48.8358 70.5554L64.4627 64.5452C65.5602 64.1231 66.0873 62.8787 65.6344 61.7934C59.4699 47.0195 57.9274 28.7963 57.9099 28.5819C57.7512 26.6218 55.1968 25.9515 54.1001 27.5937L51.0884 32.1105L46.5728 29.1002C45.3777 28.3024 43.7449 28.9292 43.3958 30.328L42.0286 35.7928L38.2396 33.2668C37.0444 32.469 35.4116 33.0958 35.0625 34.4946L33.6954 39.9594L29.9064 37.4334C28.4629 36.471 26.5374 37.598 26.6733 39.3279C26.715 39.8683 27.7449 52.721 31.6524 65.8042C33.9805 73.597 36.8581 79.8365 40.2044 84.3521C42.5526 87.5176 46.1517 89.1659 49.7879 89.1659H50.5143C54.5158 89.1659 57.8548 85.9882 57.9157 81.987C57.9775 77.9148 54.6831 74.5827 50.6249 74.5827ZM37.2318 52.4397C36.8047 51.372 37.3242 50.1598 38.3932 49.7314L48.8098 45.5648C49.8775 45.1377 51.0897 45.6573 51.5181 46.7263C51.9452 47.794 51.4256 49.0062 50.3566 49.4346C39.076 53.9467 39.7418 53.7496 39.1667 53.7496C38.3412 53.7496 37.5586 53.2548 37.2318 52.4397ZM42.0234 61.9344C40.9707 62.3555 39.7484 61.8538 39.3151 60.773C38.888 59.7053 39.4075 58.493 40.4765 58.0647L50.8931 53.898C51.9608 53.471 53.173 53.9905 53.6014 55.0595C54.0285 56.1272 53.5089 57.3394 52.4399 57.7678L42.0234 61.9344ZM82.9161 62.0828C82.372 62.0828 83.4482 61.7301 68.3864 67.5229C68.368 67.4924 58.3099 71.3756 58.327 71.3689C57.5861 71.654 57.4274 72.625 58.0325 73.1388C64.3717 78.5221 63.055 88.6256 55.5555 92.216C54.9956 92.484 55.1833 93.3314 55.804 93.3325C57.534 93.3353 59.1942 92.9131 60.6456 92.1554L83.1101 82.9055C83.5372 82.8665 83.9278 82.6985 84.2403 82.4407C90.3286 79.9348 90.0426 80.1192 90.4564 79.6868C96.7498 73.0886 92.035 62.0828 82.9161 62.0828Z" fill="#1F8FFF"/>
<path d="M87.68 46.6141L91.4406 48.8933C90.3226 51.0135 88.7472 52.6921 86.7144 53.9289C84.6816 55.1656 82.4455 55.784 80.0062 55.784C78.9559 55.784 77.8548 55.6427 76.7029 55.36L75.1275 60.3955H72.4341L74.2636 54.5119C71.9259 53.4165 70.0625 51.738 68.6734 49.4764C67.3182 47.2148 66.6406 44.6706 66.6406 41.8436C66.6406 37.8858 67.9111 34.5818 70.4521 31.9316C72.9931 29.2459 76.1778 27.9031 80.0062 27.9031C80.9887 27.9031 81.8018 27.9738 82.4455 28.1152L83.9193 23.2917H86.6128L84.8849 28.8572C87.7985 29.988 89.916 31.9846 91.2373 34.8469L87.5275 37.0731C86.6466 35.2356 85.3253 33.9281 83.5636 33.1507L78.0242 51.0135C78.5324 51.1549 79.1931 51.2256 80.0062 51.2256C81.7002 51.2256 83.2248 50.8192 84.58 50.0064C85.9352 49.1584 86.9685 48.0276 87.68 46.6141ZM71.0619 41.8436C71.0619 43.6458 71.4685 45.2713 72.2816 46.7201C73.0947 48.1689 74.2128 49.2997 75.6357 50.1125L81.0734 32.4616C80.904 32.4263 80.5483 32.4086 80.0062 32.4086C77.4652 32.4086 75.3308 33.3097 73.6029 35.1119C71.9089 36.9494 71.0619 39.1933 71.0619 41.8436Z" fill="#1F8FFF"/>
</g>
<defs>
<clipPath id="clip0_298_31">
<rect width="66.6667" height="66.6667" fill="white" transform="translate(26.6665 26.6667)"/>
</clipPath>
</defs>
</svg>
