<svg width="105" height="105" viewBox="0 0 105 105" fill="none" xmlns="http://www.w3.org/2000/svg">
<circle cx="52.5" cy="52.5" r="52.5" fill="#FE203D" fill-opacity="0.05"/>
<path d="M86.9957 61.087L86.4978 56.1105C86.1422 52.7691 83.9384 49.9965 80.8816 48.9302C79.4599 50.2096 77.5402 50.9916 75.4786 50.9916C73.417 50.9916 71.4975 50.2096 70.0756 48.9302C69.0094 49.2857 68.0142 49.9255 67.1606 50.7075C68.867 52.6982 70.0042 55.1152 70.2889 57.8169L70.8577 63.931V64.6421L72.6351 64.9977C74.5547 65.3533 76.4739 65.3533 78.3936 64.9977L85.0765 63.6468C86.2845 63.4326 87.0666 62.2954 86.9957 61.0869L86.9957 61.087Z" fill="#CC0229"/>
<path d="M72.4923 48.2902C73.3453 48.7881 74.412 49.0013 75.4783 49.0013C76.5445 49.0013 77.5398 48.7172 78.4642 48.2902C80.4549 47.224 81.8766 45.0911 81.8766 42.674C81.8766 39.1903 79.0331 36.3467 75.5493 36.3467C72.0655 36.3467 69.2219 39.1902 69.2219 42.674C69.151 45.0911 70.5018 47.2235 72.4925 48.2902H72.4923Z" fill="#CC0229"/>
<path d="M65.7387 52.4847C64.5302 51.063 62.9661 49.9254 61.1887 49.2856C59.4114 50.8497 57.0653 51.845 54.5772 51.845C52.0887 51.845 49.6716 50.9207 47.9657 49.2856C44.2687 50.5651 41.4251 53.978 41.0696 58.1014L40.5008 64.2155C40.3585 65.7087 41.3538 67.059 42.8469 67.4146L50.9511 69.0496C51.5199 69.192 52.0887 69.2629 52.7285 69.3338C53.2973 69.4047 53.937 69.4047 54.5058 69.4047C55.0746 69.4047 55.7144 69.4047 56.2832 69.3338C56.852 69.2629 57.4917 69.1915 58.0605 69.0496L66.3075 67.3433C67.8008 67.0591 68.7961 65.7082 68.6536 64.215V64.1441L68.0848 58.1008C67.8716 55.9684 67.0181 54.0487 65.7387 52.4847V52.4847Z" fill="#CC0229"/>
<path d="M50.88 48.7167C51.9462 49.2855 53.2261 49.6411 54.5057 49.6411C55.8566 49.6411 57.065 49.2855 58.1313 48.7167C60.6199 47.4373 62.3257 44.8064 62.3257 41.8206C62.3257 37.4839 58.842 34 54.5052 34C50.1683 34 46.6846 37.4837 46.6846 41.8206C46.6851 44.8065 48.3915 47.4368 50.88 48.7167V48.7167Z" fill="#CC0229"/>
<path d="M38.9361 49.001C37.5143 50.2805 35.5947 51.0625 33.5331 51.0625C31.4715 51.0625 29.552 50.2804 28.1301 49.001C25.0728 50.0677 22.7975 52.8404 22.5134 56.1818L22.0155 61.1582C21.8732 62.3667 22.7266 63.5043 23.9352 63.7176L30.6181 65.0685C32.5378 65.4241 34.4569 65.4241 36.3766 65.0685L38.1539 64.7129V64.0018L38.7228 57.8877C39.0069 55.186 40.0737 52.698 41.851 50.7783C40.998 49.9963 40.0027 49.4274 38.936 49.001L38.9361 49.001Z" fill="#CC0229"/>
<path d="M30.547 48.2902C31.4 48.7881 32.4667 49.0013 33.533 49.0013C34.5992 49.0013 35.5945 48.7172 36.5189 48.2902C38.5096 47.224 39.9313 45.0911 39.9313 42.674C39.9313 39.1903 37.0878 36.3467 33.6039 36.3467C30.1201 36.3467 27.2766 39.1902 27.2766 42.674C27.2057 45.0911 28.5565 47.2235 30.5472 48.2902H30.547Z" fill="#CC0229"/>
</svg>
