<svg width="120" height="120" viewBox="0 0 120 120" fill="none" xmlns="http://www.w3.org/2000/svg">
<circle cx="60" cy="60" r="60" fill="#1F8FFF" fill-opacity="0.1"/>
<g clip-path="url(#clip0_296_111)">
<path d="M81.8052 79.8354H76.3101C75.2315 79.8354 74.357 80.7099 74.357 81.7885C74.357 82.8671 75.2315 83.7416 76.3101 83.7416H76.433C71.4576 87.194 65.5231 88.9928 59.3675 88.8559C51.9009 88.6908 44.8793 85.6903 39.5963 80.4074C37.9392 78.7502 36.5136 76.9349 35.3242 74.9791H43.2949C44.3735 74.9791 45.248 74.1046 45.248 73.026V47.1799C45.248 46.1013 44.3735 45.2268 43.2949 45.2268H28.6196C27.541 45.2268 26.6665 46.1013 26.6665 47.1799V73.026C26.6665 74.1046 27.541 74.9791 28.6196 74.9791H30.8487C32.3909 77.9851 34.3928 80.7281 36.8342 83.1695C42.832 89.1673 50.8039 92.5738 59.2812 92.7613C59.5282 92.7668 59.7738 92.7695 60.0201 92.7695C67.2407 92.7695 74.1638 90.4231 79.852 86.0841V87.2835C79.852 88.3622 80.7265 89.2367 81.8052 89.2367C82.8838 89.2367 83.7583 88.3622 83.7583 87.2835V81.7885C83.7583 80.7099 82.8838 79.8354 81.8052 79.8354Z" fill="#1F8FFF"/>
<path d="M91.3806 46.3186H89.7775C88.1654 42.7981 85.9504 39.614 83.1624 36.8261C71.4932 25.1567 53.0546 24.0653 40.1445 33.911V32.7122C40.1445 31.6335 39.2701 30.7591 38.1914 30.7591C37.1128 30.7591 36.2383 31.6335 36.2383 32.7122V38.2072C36.2383 39.2859 37.1128 40.1604 38.1914 40.1604H43.6865C44.7651 40.1604 45.6396 39.2859 45.6396 38.2072C45.6396 37.1286 44.7651 36.2541 43.6865 36.2541H43.5609C54.8629 28.414 70.434 29.6221 80.4003 39.5881C82.4186 41.6065 84.0953 43.86 85.4173 46.3184H76.7053C75.6267 46.3184 74.7522 47.1929 74.7522 48.2716V72.8156C74.7522 73.8942 75.6267 74.7687 76.7053 74.7687H91.3806C92.4593 74.7687 93.3337 73.8942 93.3337 72.8156V48.2717C93.3337 47.1931 92.4593 46.3186 91.3806 46.3186Z" fill="#1F8FFF"/>
<path d="M67.7109 64.2969L71.0675 66.3329C70.0696 68.2268 68.6635 69.7262 66.8491 70.831C65.0347 71.9358 63.0389 72.4882 60.8617 72.4882C59.9242 72.4882 58.9414 72.3619 57.9133 72.1094L56.5072 76.6075H54.1031L55.736 71.3518C53.6495 70.3733 51.9863 68.8739 50.7465 66.8537C49.5369 64.8335 48.9321 62.5608 48.9321 60.0355C48.9321 56.5002 50.0661 53.5488 52.3341 51.1813C54.6021 48.7823 57.4446 47.5829 60.8617 47.5829C61.7386 47.5829 62.4644 47.646 63.0389 47.7722L64.3543 43.4635H66.7584L65.2162 48.4351C67.8168 49.4452 69.7068 51.2287 70.8861 53.7855L67.5749 55.7741C66.7886 54.1327 65.6093 52.9648 64.0368 52.2704L59.0926 68.2268C59.5462 68.3531 60.1359 68.4162 60.8617 68.4162C62.3736 68.4162 63.7344 68.0532 64.944 67.3272C66.1536 66.5696 67.0759 65.5595 67.7109 64.2969ZM52.8784 60.0355C52.8784 61.6454 53.2413 63.0974 53.967 64.3916C54.6928 65.6858 55.6907 66.6959 56.9608 67.4219L61.8142 51.6548C61.663 51.6233 61.3455 51.6075 60.8617 51.6075C58.5937 51.6075 56.6886 52.4124 55.1464 54.0222C53.6344 55.6637 52.8784 57.6681 52.8784 60.0355Z" fill="#1F8FFF"/>
</g>
<defs>
<clipPath id="clip0_296_111">
<rect width="66.6667" height="66.6667" fill="white" transform="translate(26.6665 26.6667)"/>
</clipPath>
</defs>
</svg>
