<svg width="105" height="105" viewBox="0 0 105 105" fill="none" xmlns="http://www.w3.org/2000/svg">
<circle cx="52.5" cy="52.5" r="52.5" fill="#FE203D" fill-opacity="0.05"/>
<g clip-path="url(#clip0_2768_49)">
<path d="M71.5798 69.8558H66.7717C65.8278 69.8558 65.0627 70.6209 65.0627 71.5648C65.0627 72.5086 65.8278 73.2737 66.7717 73.2737H66.8792C62.5257 76.2945 57.3331 77.8685 51.9469 77.7488C45.4136 77.6043 39.2697 74.9788 34.6471 70.3563C33.1971 68.9063 31.9497 67.3178 30.909 65.6065H37.8833C38.8271 65.6065 39.5923 64.8414 39.5923 63.8976V41.2822C39.5923 40.3384 38.8271 39.5732 37.8833 39.5732H25.0425C24.0987 39.5732 23.3335 40.3384 23.3335 41.2822V63.8976C23.3335 64.8414 24.0987 65.6065 25.0425 65.6065H26.9929C28.3423 68.2368 30.094 70.6369 32.2302 72.7731C37.4783 78.0212 44.4537 81.0019 51.8714 81.1659C52.0875 81.1707 52.3024 81.1731 52.5179 81.1731C58.8359 81.1731 64.8936 79.1201 69.8708 75.3234V76.3729C69.8708 77.3167 70.636 78.0819 71.5798 78.0819C72.5236 78.0819 73.2888 77.3167 73.2888 76.3729V71.5648C73.2888 70.6209 72.5236 69.8558 71.5798 69.8558Z" fill="#CC0229"/>
<path d="M79.958 40.5287H78.5553C77.1447 37.4483 75.2066 34.6622 72.7671 32.2228C62.5566 22.0121 46.4227 21.0571 35.1265 29.6721V28.6231C35.1265 27.6793 34.3613 26.9142 33.4175 26.9142C32.4737 26.9142 31.7085 27.6793 31.7085 28.6231V33.4313C31.7085 34.3751 32.4737 35.1403 33.4175 35.1403H38.2257C39.1695 35.1403 39.9346 34.3751 39.9346 33.4313C39.9346 32.4875 39.1695 31.7223 38.2257 31.7223H38.1158C48.005 24.8622 61.6297 25.9193 70.3502 34.6396C72.1163 36.4056 73.5834 38.3775 74.7402 40.5286H67.1172C66.1734 40.5286 65.4082 41.2938 65.4082 42.2376V63.7136C65.4082 64.6574 66.1734 65.4226 67.1172 65.4226H79.958C80.9018 65.4226 81.667 64.6574 81.667 63.7136V42.2377C81.667 41.2939 80.9018 40.5287 79.958 40.5287Z" fill="#CC0229"/>
<path d="M59.2474 56.2599L62.1844 58.0414C61.3112 59.6986 60.0809 61.0106 58.4933 61.9773C56.9057 62.944 55.1594 63.4273 53.2543 63.4273C52.434 63.4273 51.5741 63.3168 50.6744 63.0959L49.4441 67.0317H47.3405L48.7693 62.433C46.9436 61.5768 45.4883 60.2648 44.4035 58.4971C43.3451 56.7295 42.8159 54.7408 42.8159 52.5312C42.8159 49.4378 43.8082 46.8553 45.7926 44.7838C47.7771 42.6847 50.2643 41.6352 53.2543 41.6352C54.0216 41.6352 54.6566 41.6904 55.1594 41.8009L56.3104 38.0308H58.4139L57.0645 42.3809C59.34 43.2647 60.9937 44.8253 62.0257 47.0625L59.1283 48.8025C58.4404 47.3663 57.4084 46.3444 56.0325 45.7367L51.7064 59.6986C52.1033 59.8091 52.6192 59.8643 53.2543 59.8643C54.5772 59.8643 55.7679 59.5467 56.8263 58.9115C57.8847 58.2486 58.6917 57.3647 59.2474 56.2599ZM46.2689 52.5312C46.2689 53.9399 46.5864 55.2104 47.2215 56.3428C47.8565 57.4752 48.7297 58.3591 49.841 58.9943L54.0877 45.1981C53.9554 45.1705 53.6776 45.1567 53.2543 45.1567C51.2698 45.1567 49.6028 45.861 48.2534 47.2696C46.9304 48.7059 46.2689 50.4597 46.2689 52.5312Z" fill="#CC0229"/>
</g>
<defs>
<clipPath id="clip0_2768_49">
<rect width="58.3333" height="58.3333" fill="white" transform="translate(23.3335 23.3335)"/>
</clipPath>
</defs>
</svg>
