<svg width="349" height="98" viewBox="0 0 349 98" fill="none" xmlns="http://www.w3.org/2000/svg">
<g clip-path="url(#clip0)">
<path d="M78.1695 76.0482C77.2176 76.697 76.2117 77.262 75.1628 77.7371C74.0711 78.2131 72.9354 78.5801 71.772 78.8328C70.314 79.1519 68.8249 79.3056 67.3326 79.291C64.0563 79.3832 60.7999 78.7523 57.7937 77.4428C55.2879 76.3095 53.1334 74.5192 51.5574 72.2609C49.9829 69.9346 48.9556 67.2803 48.553 64.498C48.0871 61.342 48.1714 58.1289 48.8024 55.0019C49.314 51.9934 50.1857 49.0576 51.3985 46.2584C52.6378 43.3597 54.3969 40.7135 56.5884 38.4513C58.9467 36.0562 61.7562 34.1548 64.8535 32.8577C68.6347 31.3363 72.6861 30.6064 76.7588 30.7127C79.6745 30.6963 82.5878 30.879 85.4787 31.2595C87.7815 31.559 90.0661 31.9853 92.3221 32.5367C94.4066 33.0349 96.459 33.6595 98.468 34.4071L91.2294 76.502C90.2763 82.7185 87.005 88.3404 82.0768 92.2314C79.6503 94.1327 76.9054 95.5853 73.9707 96.5212C70.7761 97.5338 67.4422 98.0343 64.0919 98.0043C61.617 98.0446 59.1447 97.822 56.7165 97.3402C55.0325 96.9895 53.3744 96.5236 51.7539 95.9457L51.7075 95.928C51.2132 95.7244 50.7677 95.4176 50.4008 95.028C50.0338 94.6384 49.7538 94.175 49.5792 93.6685C49.4046 93.162 49.3396 92.6241 49.3883 92.0905C49.4371 91.5568 49.5986 91.0397 49.862 90.5734L53.5288 83.986C54.4132 84.8529 55.4268 85.5765 56.5332 86.1309C57.7881 86.6884 59.0813 87.1545 60.4031 87.5254C62.1847 88.0003 64.0236 88.2238 65.8668 88.1895C67.452 88.2857 69.0403 88.0624 70.538 87.5328C72.0357 87.0032 73.4124 86.178 74.5867 85.106C76.881 82.5979 78.3239 79.4254 78.7082 76.0438L78.1695 76.0482ZM75.0789 40.5276C73.4551 40.5311 71.8525 40.8979 70.3879 41.6011C68.8481 42.3331 67.4585 43.3473 66.2907 44.5916C65.0288 45.9392 63.9906 47.481 63.2155 49.1582C62.3511 51.0177 61.7314 52.9821 61.3722 55.0019C61.0695 56.7271 60.9784 58.4829 61.1007 60.2303C61.1887 61.8497 61.5828 63.4377 62.2619 64.9097C62.8624 66.2204 63.778 67.3613 64.9264 68.23C66.1174 69.0887 67.5574 69.5298 69.0236 69.4851C70.47 69.49 71.9127 69.3371 73.3261 69.0291C74.5622 68.7695 75.7736 68.4029 76.9465 67.9334C78.1112 67.4569 79.2381 66.8923 80.3174 66.2445L85.0063 42.4135C84.1217 42.0249 83.2088 41.7045 82.2756 41.455C81.2419 41.1799 80.193 40.9663 79.1342 40.8153C77.7892 40.6188 76.4315 40.5226 75.0723 40.5276H75.0789Z" fill="white"/>
<path d="M120.564 79.2778C117.146 79.395 113.747 78.7232 110.63 77.3145C108.157 76.1475 106.025 74.3632 104.437 72.1325C102.923 69.9166 101.948 67.3752 101.592 64.7128C101.186 61.7819 101.27 58.8037 101.841 55.9006C102.421 52.7637 103.505 49.742 105.051 46.9535C106.631 44.0495 108.66 41.4145 111.062 39.1464C113.523 36.8326 116.376 34.9775 119.486 33.6679C122.779 32.2802 126.319 31.5812 129.89 31.6137C131.38 31.5758 132.866 31.7525 134.306 32.1383C135.276 32.4103 136.208 32.8014 137.083 33.3026C137.82 33.7221 138.482 34.2623 139.041 34.9008H139.496L140.451 29.7411L143.407 29.989C144.5 30.0808 145.563 30.396 146.53 30.915C147.497 31.4341 148.348 32.1461 149.031 33.0072C149.713 33.8683 150.212 34.8603 150.498 35.9222C150.784 36.9841 150.85 38.0934 150.692 39.1818L145.001 78.3614L133.619 79.2734L133.528 74.625H133.074C131.793 75.4936 130.453 76.2717 129.065 76.9536C127.771 77.6084 126.423 78.1505 125.036 78.574C123.59 79.0353 122.081 79.2727 120.564 79.2778V79.2778ZM122.248 69.4608C123.979 69.4768 125.703 69.2458 127.369 68.7746C128.797 68.3735 130.178 67.823 131.491 67.1322C132.802 66.4672 134.052 65.688 135.226 64.8035L137.82 44.7134C137.293 44.0781 136.662 43.5383 135.952 43.1175C135.044 42.6049 134.072 42.2135 133.063 41.9531C131.474 41.5622 129.841 41.3858 128.206 41.4285C126.488 41.4253 124.797 41.857 123.29 42.6836C121.724 43.5371 120.322 44.6611 119.146 46.0039C117.912 47.405 116.892 48.982 116.12 50.6833C115.341 52.3496 114.768 54.1045 114.411 55.9095C113.554 59.2312 113.859 62.7474 115.276 65.8704C115.976 67.0728 117.004 68.0497 118.24 68.6857C119.475 69.3218 120.865 69.5908 122.248 69.4608V69.4608Z" fill="white"/>
<path d="M188.636 31.6048C194.918 31.6048 199.517 33.2864 202.433 36.6495C205.348 40.0126 206.213 45.1945 205.027 52.1952L200.473 78.3592L188.225 78.8152L192.916 52.1996C193.159 50.7697 193.144 49.3075 192.87 47.8832C192.527 46.0477 191.549 44.3927 190.107 43.2107C188.665 42.0287 186.853 41.3959 184.991 41.4241C183.483 41.4177 181.983 41.6569 180.552 42.1324C179.14 42.6032 177.889 43.0828 176.799 43.5712C175.51 44.1712 174.263 44.8575 173.066 45.6254L168.282 78.3592L156.079 78.8152L161.284 42.9426C161.733 39.8492 163.214 36.9995 165.485 34.8578C167.756 32.7162 170.683 31.4088 173.79 31.1488V36.2621H174.245C175.558 35.3408 176.963 34.5603 178.439 33.9335C179.932 33.3198 181.459 32.7936 183.013 32.3574C184.843 31.8444 186.736 31.5911 188.636 31.6048V31.6048Z" fill="white"/>
<path d="M211.55 54.5415C212.487 47.8043 215.711 41.5966 220.678 36.9638C225.807 32.6488 232.363 30.4177 239.052 30.7106C242.526 30.5942 245.973 31.3634 249.07 32.9462C251.661 34.3374 253.872 36.3438 255.511 38.79C257.117 41.224 258.167 43.9836 258.586 46.8716C259.042 49.8717 258.995 52.9268 258.45 55.9117C257.885 59.009 256.896 62.0132 255.511 64.8389C254.112 67.7298 252.234 70.362 249.957 72.6239C247.448 75.1169 244.464 77.0769 241.182 78.3868C237.9 79.6966 234.389 80.3294 230.857 80.2473C227.717 80.2969 224.606 79.642 221.751 78.3304C219.139 77.1239 216.864 75.2892 215.129 72.9891C213.354 70.5743 212.127 67.8004 211.532 64.861C210.846 61.455 210.852 57.9451 211.55 54.5415V54.5415ZM237.378 40.5232C235.528 40.484 233.702 40.9499 232.096 41.8712C230.598 42.7521 229.278 43.906 228.204 45.2734C227.115 46.6567 226.223 48.1855 225.555 49.8156C224.913 51.3361 224.432 52.9201 224.12 54.5415C223.809 56.3583 223.657 58.1988 223.665 60.0422C223.642 61.8465 223.941 63.6406 224.548 65.3392C225.102 66.8829 226.052 68.2526 227.303 69.3102C228.806 70.4442 230.663 71.0031 232.54 70.8863C234.54 70.9526 236.516 70.4375 238.231 69.4032C239.764 68.4279 241.088 67.1544 242.123 65.6579C243.166 64.1584 243.994 62.5191 244.582 60.7881C245.136 59.1947 245.569 57.5616 245.878 55.9028C246.236 54.0069 246.343 52.0717 246.195 50.1476C246.079 48.4563 245.654 46.8007 244.944 45.2624C244.295 43.8741 243.29 42.6844 242.03 41.8159C240.644 40.9171 239.017 40.4667 237.367 40.5254L237.378 40.5232Z" fill="white"/>
<path d="M304.665 49.5162L326.865 9.86733C328.347 7.22022 330.446 4.97259 332.983 3.31686C335.521 1.66114 338.421 0.646628 341.434 0.360188L345.163 0.00378418L313.69 57.7904C310.889 62.9369 303.473 63.1383 303.473 63.1383L302.31 54.0783L304.665 49.5162Z" fill="#CB1831"/>
<path d="M38.9148 78.087C33.456 80.6955 27.4754 82.0204 21.4287 81.9607C7.70657 81.9607 1.09717 73.6001 1.09717 61.4722C1.09717 46.4865 12.0753 30.1772 29.1552 30.1772C38.9148 30.1772 45.1158 35.8858 45.1158 44.1423C45.1158 56.8835 31.7999 60.9652 12.6868 60.5535C12.4999 62.9746 12.957 65.4021 14.0114 67.5882C15.0786 69.2887 16.591 70.6628 18.3836 71.5606C20.1762 72.4583 22.1803 72.8453 24.1772 72.6793C28.9146 72.7135 33.5894 71.5939 37.8 69.4165L38.9148 78.087ZM27.632 39.0468C20.2102 39.0468 15.3315 45.6719 13.9076 51.6861C26.1066 51.892 33.9346 50.1566 33.9346 44.2464C33.9324 40.9837 31.3915 39.0446 27.6298 39.0446L27.632 39.0468Z" fill="white" stroke="white" stroke-miterlimit="10"/>
<path d="M347.134 9.36105C346.39 10.7357 345.71 11.9952 345.023 13.2524C335.269 31.1733 325.513 49.0941 315.756 67.0149C314.223 69.9408 311.87 72.3527 308.986 73.9533C306.102 75.5538 302.814 76.2729 299.528 76.0218C298.381 66.0933 297.233 56.1471 296.082 46.1833L295.788 46.066C295.543 46.4055 295.316 46.7571 295.106 47.1196L283.099 70.2976C282.382 71.6831 281.307 72.8505 279.987 73.6781C278.667 74.5058 277.15 74.9635 275.594 75.0036C272.997 75.0722 270.006 75.1585 268.132 75.2249C266.573 65.5031 265.017 55.8033 263.441 45.9907C265.34 45.8305 267.252 46.0679 269.055 46.6879C270.858 47.3079 272.512 48.2969 273.914 49.5921C276.624 52.2898 278.192 55.9328 278.289 59.7611L278.613 59.8297C278.854 59.5312 279.075 59.2177 279.276 58.8912C283.033 51.7592 286.786 44.6249 290.534 37.4885C291.466 35.7177 292.417 33.9468 293.314 32.176C293.428 31.9333 293.605 31.7264 293.828 31.5774C294.05 31.4284 294.309 31.3431 294.576 31.3304C296.981 31.3179 299.305 32.1955 301.104 33.795C302.903 35.3946 304.05 37.6036 304.325 39.9987C304.972 45.9221 305.683 51.8389 306.369 57.7601C306.404 58.0567 306.479 58.3489 306.59 58.8669C306.859 58.4109 307.031 58.1165 307.208 57.8154C313.956 45.7627 320.387 34.2612 328.696 19.4437C330.31 16.6082 332.597 14.2156 335.354 12.4781C338.11 10.7405 341.252 9.71176 344.5 9.48281C345.231 9.42526 345.959 9.34999 346.69 9.29022C346.84 9.30172 346.988 9.3254 347.134 9.36105V9.36105Z" fill="#CC0229"/>
<path d="M348.098 12.5175C347.352 13.8943 346.672 15.1516 345.987 16.4089C336.233 34.3312 326.477 52.252 316.72 70.1713C315.187 73.0968 312.833 75.5085 309.95 77.109C307.066 78.7094 303.778 79.4288 300.492 79.1782L297.046 49.3397L296.75 49.2202C296.529 49.5699 296.26 49.9042 296.068 50.2761L284.063 73.4452C283.346 74.8305 282.271 75.9977 280.951 76.8254C279.631 77.653 278.114 78.1108 276.558 78.1512C273.962 78.2198 270.972 78.3061 269.098 78.3725C267.538 68.6506 265.981 58.9509 264.407 49.1383C266.306 48.9776 268.218 49.2146 270.021 49.8342C271.824 50.4538 273.478 51.4425 274.88 52.7375C277.591 55.4351 279.159 59.0779 279.257 62.9065L279.582 62.9751C279.823 62.6769 280.044 62.3634 280.244 62.0366C284.002 54.906 287.754 47.7718 291.503 40.6339C292.434 38.863 293.388 37.0922 294.282 35.3214C294.397 35.0794 294.575 34.8732 294.797 34.7247C295.02 34.5762 295.278 34.4909 295.545 34.478C297.949 34.4654 300.274 35.3429 302.073 36.9425C303.873 38.542 305.02 40.751 305.296 43.1462C305.942 49.0697 306.651 54.9865 307.34 60.9077C307.373 61.2043 307.45 61.4965 307.561 62.0144C307.83 61.5562 308.002 61.264 308.179 60.963C315.341 48.1732 322.504 35.3826 329.667 22.5913C331.282 19.7578 333.57 17.3675 336.326 15.6319C339.083 13.8964 342.224 12.8693 345.471 12.6415C346.201 12.5839 346.932 12.5086 347.661 12.4467C347.808 12.4585 347.954 12.4823 348.098 12.5175V12.5175Z" fill="white"/>
</g>
<defs>
<clipPath id="clip0">
<rect width="348.087" height="98" fill="white"/>
</clipPath>
</defs>
</svg>
