<svg xmlns="http://www.w3.org/2000/svg" viewBox="0 0 157.68 44.273"><g fill="#cc0229"><path transform="translate(-308.18 -204.67)" d="m343.59 239.026a9.053 9.053 0 0 1 -1.362.763 8.216 8.216 0 0 1 -1.536.495 9.018 9.018 0 0 1 -2.011.207 10.131 10.131 0 0 1 -4.321-.835 6.921 6.921 0 0 1 -2.825-2.341 8.391 8.391 0 0 1 -1.361-3.507 12.445 12.445 0 0 1 .113-4.29 17.147 17.147 0 0 1 1.176-3.95 11.65 11.65 0 0 1 2.351-3.527 11.477 11.477 0 0 1 3.744-2.527 13.535 13.535 0 0 1 5.393-.969 29.091 29.091 0 0 1 3.95.247 28.652 28.652 0 0 1 3.1.577 23.986 23.986 0 0 1 2.784.845l-3.279 19.017a11.213 11.213 0 0 1 -4.146 7.106 11.746 11.746 0 0 1 -3.672 1.938 14.42 14.42 0 0 1 -4.475.67 15.883 15.883 0 0 1 -3.341-.3 17.068 17.068 0 0 1 -2.248-.63l-.021-.008a1.706 1.706 0 0 1 -.836-2.419l1.661-2.976a5.4 5.4 0 0 0 1.361.969 12.923 12.923 0 0 0 1.753.63 8.984 8.984 0 0 0 2.475.3 5.384 5.384 0 0 0 3.95-1.393 7.275 7.275 0 0 0 1.867-4.094zm-1.4-16.047a4.945 4.945 0 0 0 -2.125.485 6.189 6.189 0 0 0 -1.856 1.351 7.812 7.812 0 0 0 -1.393 2.063 10.691 10.691 0 0 0 -.835 2.64 9.709 9.709 0 0 0 -.123 2.362 5.785 5.785 0 0 0 .526 2.114 3.939 3.939 0 0 0 1.207 1.5 3.022 3.022 0 0 0 1.856.567 9.033 9.033 0 0 0 1.949-.206 9.894 9.894 0 0 0 1.64-.495 11.244 11.244 0 0 0 1.527-.763l2.124-10.766a8.612 8.612 0 0 0 -1.237-.433 12.287 12.287 0 0 0 -1.423-.289 12.445 12.445 0 0 0 -1.84-.13z"></path><path transform="translate(-322.33 -204.42)" d="m376.944 240.235a10.112 10.112 0 0 1 -4.5-.887 7.226 7.226 0 0 1 -2.805-2.341 7.756 7.756 0 0 1 -1.289-3.352 12.021 12.021 0 0 1 .113-3.981 13.312 13.312 0 0 1 1.454-4.042 14.165 14.165 0 0 1 2.723-3.527 12.855 12.855 0 0 1 3.816-2.475 11.884 11.884 0 0 1 4.713-.928 7.051 7.051 0 0 1 2 .237 5.541 5.541 0 0 1 1.258.526 3.442 3.442 0 0 1 .887.722h.206l.433-2.331 1.339.112a3.642 3.642 0 0 1 3.3 4.153l-2.578 17.7-5.156.412-.041-2.1h-.206a15.076 15.076 0 0 1 -1.816 1.052 11.471 11.471 0 0 1 -1.825.732 6.759 6.759 0 0 1 -2.026.318zm.763-4.435a8.266 8.266 0 0 0 2.32-.31 9.578 9.578 0 0 0 1.867-.742 11.353 11.353 0 0 0 1.692-1.052l1.175-9.076a3.258 3.258 0 0 0 -.846-.721 5.425 5.425 0 0 0 -1.309-.526 8.318 8.318 0 0 0 -2.2-.237 4.623 4.623 0 0 0 -2.227.567 6.854 6.854 0 0 0 -1.877 1.5 8.535 8.535 0 0 0 -1.371 2.114 10.27 10.27 0 0 0 -.774 2.361 6.77 6.77 0 0 0 .392 4.5 3.3 3.3 0 0 0 3.158 1.622z"></path><path transform="translate(-336.92 -204.8)" d="m422.37 219.078q4.269 0 6.25 2.279t1.175 7.023l-2.063 11.82-5.548.206 2.125-12.024a5.452 5.452 0 0 0 -.021-1.95 3.576 3.576 0 0 0 -3.569-2.918 6.311 6.311 0 0 0 -2.011.32q-.959.319-1.7.65a14.351 14.351 0 0 0 -1.691.928l-2.167 14.788-5.528.206 2.358-16.206a6.25 6.25 0 0 1 5.665-5.328v2.31h.206a10.368 10.368 0 0 1 1.9-1.052 18.886 18.886 0 0 1 2.072-.712 9.211 9.211 0 0 1 2.547-.34z"></path><path transform="translate(-351.56 -204.67)" d="m447.39 229.31a13.366 13.366 0 0 1 4.135-7.941 12.126 12.126 0 0 1 8.323-2.825 9.309 9.309 0 0 1 4.538 1.01 8.151 8.151 0 0 1 2.918 2.64 8.954 8.954 0 0 1 1.393 3.651 12.347 12.347 0 0 1-0.062 4.084 15.432 15.432 0 0 1-1.331 4.033 12.856 12.856 0 0 1-2.516 3.517 11.9 11.9 0 0 1-8.652 3.444 9.543 9.543 0 0 1-4.125-0.866 7.912 7.912 0 0 1-3-2.413 9.314 9.314 0 0 1-1.629-3.672 11.667 11.667 0 0 1 8e-3 -4.662zm11.7-6.333a4.623 4.623 0 0 0-2.393 0.609 6.309 6.309 0 0 0-1.763 1.537 8.566 8.566 0 0 0-1.2 2.052 10.631 10.631 0 0 0-0.65 2.135 14.338 14.338 0 0 0-0.206 2.485 6.824 6.824 0 0 0 0.4 2.393 4.212 4.212 0 0 0 1.248 1.794 3.576 3.576 0 0 0 2.372 0.712 4.7 4.7 0 0 0 2.578-0.67 6.16 6.16 0 0 0 1.763-1.692 8.8 8.8 0 0 0 1.114-2.2 15.153 15.153 0 0 0 0.587-2.207 9.884 9.884 0 0 0 0.144-2.6 6.283 6.283 0 0 0-0.567-2.207 3.893 3.893 0 0 0-1.32-1.557 3.65 3.65 0 0 0-2.112-0.583z"></path></g><path transform="translate(-375.9 -196.51)" d="m513.91 218.88 10.056-17.912a8.487 8.487 0 0 1 6.6-4.295l1.689-0.161-14.257 26.106c-1.269 2.325-4.628 2.416-4.628 2.416l-0.527-4.093z" fill="#1f8fff"></path><path transform="translate(-295.61 -204.54)" d="m313.238 239.817a18 18 0 0 1 -7.921 1.75c-6.216 0-9.21-3.777-9.21-9.256 0-6.77 4.973-14.138 12.71-14.138 4.421 0 7.23 2.579 7.23 6.309 0 5.756-6.032 7.6-14.69 7.414a6.2 6.2 0 0 0 .6 3.178 4.957 4.957 0 0 0 4.605 2.3 13.255 13.255 0 0 0 6.171-1.474zm-5.111-17.637c-3.362 0-5.572 2.993-6.217 5.71 5.526.093 9.072-.691 9.072-3.361-.001-1.474-1.152-2.35-2.856-2.35z" fill="#cc0229" stroke="#cc0229" stroke-miterlimit="10"></path><path transform="translate(-365.53 -198.98)" d="m522.778 203.209c-.337.621-.645 1.19-.956 1.758q-6.628 12.144-13.258 24.288a7.647 7.647 0 0 1 -7.351 4.069q-.779-6.728-1.561-13.48l-.133-.053a5.644 5.644 0 0 0 -.309.476l-5.439 10.471a3.945 3.945 0 0 1 -3.4 2.126c-1.176.031-2.531.07-3.38.1-.706-4.392-1.411-8.774-2.125-13.207a6.229 6.229 0 0 1 4.744 1.627 6.713 6.713 0 0 1 1.982 4.594l.147.031a4.116 4.116 0 0 0 .3-.424q2.553-4.833 5.1-9.669c.422-.8.853-1.6 1.259-2.4a.667.667 0 0 1 .572-.382 4.422 4.422 0 0 1 4.416 3.916c.293 2.676.615 5.349.926 8.024.016.134.05.266.1.5.122-.206.2-.339.28-.475 3.057-5.445 5.97-10.641 9.734-17.335a8.967 8.967 0 0 1 7.159-4.5c.331-.026.661-.06.992-.087a1.252 1.252 0 0 1 .201.032z" fill="#fff"></path><path transform="translate(-365.79 -199.82)" d="m523.475 205.475c-.338.622-.646 1.19-.956 1.758q-6.628 12.145-13.258 24.288a7.649 7.649 0 0 1 -7.351 4.069l-1.561-13.48-.134-.054c-.1.158-.222.309-.309.477l-5.438 10.467a3.946 3.946 0 0 1 -3.4 2.126c-1.176.031-2.53.07-3.379.1-.707-4.392-1.412-8.774-2.125-13.207a6.228 6.228 0 0 1 4.744 1.626 6.715 6.715 0 0 1 1.983 4.594l.147.031a4.018 4.018 0 0 0 .3-.424q2.553-4.832 5.1-9.669c.422-.8.854-1.6 1.259-2.4a.669.669 0 0 1 .572-.381 4.423 4.423 0 0 1 4.417 3.916c.293 2.676.614 5.349.926 8.024.015.134.05.266.1.5.122-.207.2-.339.28-.475q4.867-8.667 9.734-17.335a8.967 8.967 0 0 1 7.159-4.495c.331-.026.662-.06.992-.088a1.256 1.256 0 0 1 .198.032z" fill="#cc0229"></path></svg>